<?xml version="1.0" standalone="no"?><!DOCTYPE svg PUBLIC "-//W3C//DTD SVG 1.1//EN" "http://www.w3.org/Graphics/SVG/1.1/DTD/svg11.dtd"><svg t="1637223382988" class="icon" viewBox="0 0 1024 1024" version="1.1" xmlns="http://www.w3.org/2000/svg" p-id="1243" xmlns:xlink="http://www.w3.org/1999/xlink" width="32" height="32"><defs><style type="text/css"></style></defs><path d="M774.7 354.8c-6 11.2 4.9 22.8-73.2 22.8s-74.4 20.2-74.4 20.2c-4.7-0.7-9.2 2.6-9.8 7.4L581.8 655c-15.5-3.4-39.3 5.3-60.4 23.5-27.4 23.6-39.6 54.3-27.4 68.5s44.3 6.5 71.7-17.2c22.7-19.6 35-44.1 31.5-59.9l37.3-262.3c21.4-26.8 76.2 19.3 106.9-0.8 30.6-20.2 39.3-63.2 33.3-52z" fill="#E2B0BC" p-id="1244"></path><path d="M500.2 249.2c38.2-47.9 136.3 34.6 191.1-1.5s70.4-112.9 59.7-93 8.8 40.8-131 40.8-133 36.1-133 36.1c-8.5-1.2-16.4 4.7-17.6 13.2L406 691.5c-27.6-6.1-70.4 9.5-108 42.1-49 42.3-70.9 97.1-49 122.4s79.3 11.6 128.2-30.7c40.6-35.1 62.6-78.8 56.4-107.2l66.6-468.9z" fill="#FF7898" p-id="1245"></path></svg>